{
  "accessors": [
    {
      "bufferView": 2,
      "componentType": 5126,
      "count": 196,
      "max": [
        12.035778999328613,
        -3.2116832733154297,
        -0.7638094425201416
      ],
      "min": [
        0.45989447832107544,
        -8.477409362792969,
        -5.205297470092773
      ],
      "type": "VEC3"
    },
    {
      "bufferView": 2,
      "byteOffset": 2352,
      "componentType": 5126,
      "count": 196,
      "max": [
        0.8725278377532959,
        0.9616977572441101,
        0.9817941188812256
      ],
      "min": [
        -0.8725309371948242,
        -0.9212743043899536,
        -0.9497277736663818
      ],
      "type": "VEC3"
    },
    {
      "bufferView": 1,
      "componentType": 5126,
      "count": 196,
      "max": [
        0.6865079402923584,
        0.7077093124389648
      ],
      "min": [
        0.5789375305175781,
        0.44271236658096313
      ],
      "type": "VEC2"
    },
    {
      "bufferView": 0,
      "componentType": 5125,
      "count": 198,
      "type": "SCALAR"
    },
    {
      "bufferView": 2,
      "byteOffset": 4704,
      "componentType": 5126,
      "count": 51,
      "max": [
        14.54672908782959,
        12.34368896484375,
        5.180990695953369
      ],
      "min": [
        -14.70527458190918,
        -13.888949394226074,
        -6.863330841064453
      ],
      "type": "VEC3"
    },
    {
      "bufferView": 2,
      "byteOffset": 5316,
      "componentType": 5126,
      "count": 51,
      "max": [
        0.8975636959075928,
        0.9820892810821533,
        0.40587174892425537
      ],
      "min": [
        -0.8975637555122375,
        -0.9816025495529175,
        -0.9139314889907837
      ],
      "type": "VEC3"
    },
    {
      "bufferView": 1,
      "byteOffset": 1568,
      "componentType": 5126,
      "count": 51,
      "max": [
        0.7717307806015015,
        0.9763010144233704
      ],
      "min": [
        0.06830020248889923,
        0.43291568756103516
      ],
      "type": "VEC2"
    },
    {
      "bufferView": 0,
      "byteOffset": 792,
      "componentType": 5125,
      "count": 51,
      "type": "SCALAR"
    },
    {
      "bufferView": 2,
      "byteOffset": 5928,
      "componentType": 5126,
      "count": 702,
      "max": [
        -10.274959564208984,
        0.6312041282653809,
        -6.111781120300293
      ],
      "min": [
        -14.05927562713623,
        -7.718825340270996,
        -7.135623455047607
      ],
      "type": "VEC3"
    },
    {
      "bufferView": 2,
      "byteOffset": 14352,
      "componentType": 5126,
      "count": 702,
      "max": [
        0.998920738697052,
        0.9955986738204956,
        0.9332388043403625
      ],
      "min": [
        -0.9862273931503296,
        -0.999091386795044,
        -0.9990251660346985
      ],
      "type": "VEC3"
    },
    {
      "bufferView": 1,
      "byteOffset": 1976,
      "componentType": 5126,
      "count": 702,
      "max": [
        0.8194773197174072,
        0.9676257371902466
      ],
      "min": [
        0.6206600666046143,
        0.06991732120513916
      ],
      "type": "VEC2"
    },
    {
      "bufferView": 0,
      "byteOffset": 996,
      "componentType": 5125,
      "count": 702,
      "type": "SCALAR"
    },
    {
      "bufferView": 2,
      "byteOffset": 22776,
      "componentType": 5126,
      "count": 84,
      "max": [
        14.941014289855957,
        12.041488647460938,
        5.69456148147583
      ],
      "min": [
        -17.06526756286621,
        -14.849861145019531,
        -7.161548137664795
      ],
      "type": "VEC3"
    },
    {
      "bufferView": 2,
      "byteOffset": 23784,
      "componentType": 5126,
      "count": 84,
      "max": [
        0.899433970451355,
        0.9832969903945923,
        0.9139319062232971
      ],
      "min": [
        -0.8994226455688477,
        -0.9832943081855774,
        -0.9139321446418762
      ],
      "type": "VEC3"
    },
    {
      "bufferView": 1,
      "byteOffset": 7592,
      "componentType": 5126,
      "count": 84,
      "max": [
        0.7569306492805481,
        0.411321222782135
      ],
      "min": [
        0.1378614455461502,
        0.01579993963241577
      ],
      "type": "VEC2"
    },
    {
      "bufferView": 0,
      "byteOffset": 3804,
      "componentType": 5125,
      "count": 84,
      "type": "SCALAR"
    },
    {
      "bufferView": 3,
      "componentType": 5126,
      "count": 61,
      "max": [
        2.5416667461395264
      ],
      "min": [
        0.0416666679084301
      ],
      "type": "SCALAR"
    },
    {
      "bufferView": 4,
      "componentType": 5126,
      "count": 61,
      "max": [
        0.04786121845245361,
        1.7136335372924805e-07,
        1.2648131847381592
      ],
      "min": [
        -0.019806310534477234,
        -1.811550259590149,
        -7.82310962677002e-08
      ],
      "type": "VEC3"
    },
    {
      "bufferView": 3,
      "byteOffset": 244,
      "componentType": 5126,
      "count": 61,
      "max": [
        2.5416667461395264
      ],
      "min": [
        0.0416666679084301
      ],
      "type": "SCALAR"
    },
    {
      "bufferView": 5,
      "componentType": 5126,
      "count": 61,
      "max": [
        0.03311281278729439,
        0.07218390703201294,
        0.043514199554920197,
        1.0
      ],
      "min": [
        -5.587935891782081e-09,
        3.725290742551124e-09,
        7.450581485102248e-09,
        0.9958913326263428
      ],
      "type": "VEC4"
    },
    {
      "bufferView": 3,
      "byteOffset": 488,
      "componentType": 5126,
      "count": 61,
      "max": [
        2.5416667461395264
      ],
      "min": [
        0.0416666679084301
      ],
      "type": "SCALAR"
    },
    {
      "bufferView": 4,
      "byteOffset": 732,
      "componentType": 5126,
      "count": 61,
      "max": [
        1.0,
        1.0,
        1.0
      ],
      "min": [
        0.9999998211860657,
        0.9999998211860657,
        0.9999997615814209
      ],
      "type": "VEC3"
    },
    {
      "bufferView": 3,
      "byteOffset": 732,
      "componentType": 5126,
      "count": 61,
      "max": [
        2.5416667461395264
      ],
      "min": [
        0.0416666679084301
      ],
      "type": "SCALAR"
    },
    {
      "bufferView": 4,
      "byteOffset": 1464,
      "componentType": 5126,
      "count": 61,
      "max": [
        0.0005908797029405832,
        1.348437672277214e-05,
        -0.0
      ],
      "min": [
        0.0,
        0.0,
        -0.00038150622276589274
      ],
      "type": "VEC3"
    },
    {
      "bufferView": 3,
      "byteOffset": 976,
      "componentType": 5126,
      "count": 61,
      "max": [
        2.5416667461395264
      ],
      "min": [
        0.0416666679084301
      ],
      "type": "SCALAR"
    },
    {
      "bufferView": 5,
      "byteOffset": 976,
      "componentType": 5126,
      "count": 61,
      "max": [
        0.7071068286895752,
        0.017130909487605095,
        -0.0,
        0.7132915258407593
      ],
      "min": [
        0.6997155547142029,
        0.0,
        -0.03633158653974533,
        0.7071067094802856
      ],
      "type": "VEC4"
    },
    {
      "bufferView": 3,
      "byteOffset": 1220,
      "componentType": 5126,
      "count": 46,
      "max": [
        2.5416667461395264
      ],
      "min": [
        0.0416666679084301
      ],
      "type": "SCALAR"
    },
    {
      "bufferView": 4,
      "byteOffset": 2196,
      "componentType": 5126,
      "count": 46,
      "max": [
        0.010000001639127731,
        0.010000001639127731,
        0.009999999776482582
      ],
      "min": [
        0.009999999776482582,
        0.009999997913837433,
        0.009999997913837433
      ],
      "type": "VEC3"
    }
  ],
  "animations": [
    {
      "channels": [
        {
          "sampler": 0,
          "target": {
            "node": 4,
            "path": "translation"
          }
        },
        {
          "sampler": 1,
          "target": {
            "node": 4,
            "path": "rotation"
          }
        },
        {
          "sampler": 2,
          "target": {
            "node": 4,
            "path": "scale"
          }
        },
        {
          "sampler": 3,
          "target": {
            "node": 6,
            "path": "translation"
          }
        },
        {
          "sampler": 4,
          "target": {
            "node": 6,
            "path": "rotation"
          }
        },
        {
          "sampler": 5,
          "target": {
            "node": 6,
            "path": "scale"
          }
        }
      ],
      "name": "Animation",
      "samplers": [
        {
          "input": 16,
          "interpolation": "LINEAR",
          "output": 17
        },
        {
          "input": 18,
          "interpolation": "LINEAR",
          "output": 19
        },
        {
          "input": 20,
          "interpolation": "LINEAR",
          "output": 21
        },
        {
          "input": 22,
          "interpolation": "LINEAR",
          "output": 23
        },
        {
          "input": 24,
          "interpolation": "LINEAR",
          "output": 25
        },
        {
          "input": 26,
          "interpolation": "LINEAR",
          "output": 27
        }
      ]
    }
  ],
  "asset": {
    "extras": {
      "author": "abhijithsince2002 (https://sketchfab.com/abhijithsince2002)",
      "license": "CC-BY-4.0 (http://creativecommons.org/licenses/by/4.0/)",
      "source": "https://sketchfab.com/3d-models/paper-pen-one-6e7f94bc4fd845e48abee51f2e5c6153",
      "title": "Paper pen one"
    },
    "generator": "Sketchfab-15.25.0",
    "version": "2.0"
  },
  "bufferViews": [
    {
      "buffer": 0,
      "byteLength": 4140,
      "name": "floatBufferViews",
      "target": 34963
    },
    {
      "buffer": 0,
      "byteLength": 8264,
      "byteOffset": 4140,
      "byteStride": 8,
      "name": "floatBufferViews",
      "target": 34962
    },
    {
      "buffer": 0,
      "byteLength": 24792,
      "byteOffset": 12404,
      "byteStride": 12,
      "name": "floatBufferViews",
      "target": 34962
    },
    {
      "buffer": 0,
      "byteLength": 1404,
      "byteOffset": 37196,
      "name": "floatBufferViews"
    },
    {
      "buffer": 0,
      "byteLength": 2748,
      "byteOffset": 38600,
      "byteStride": 12,
      "name": "floatBufferViews"
    },
    {
      "buffer": 0,
      "byteLength": 1952,
      "byteOffset": 41348,
      "byteStride": 16,
      "name": "floatBufferViews"
    }
  ],
  "buffers": [
    {
      "byteLength": 43300,
      "uri": "scene.bin"
    }
  ],
  "images": [
    {
      "uri": "textures/Pen_And_Paper_lambert2_baseColor.png"
    }
  ],
  "materials": [
    {
      "doubleSided": true,
      "name": "Pen_And_Paper_lambert2",
      "pbrMetallicRoughness": {
        "baseColorTexture": {
          "index": 0
        },
        "metallicFactor": 0.0,
        "roughnessFactor": 0.552786
      }
    },
    {
      "doubleSided": true,
      "name": "aiStandardSurface2",
      "pbrMetallicRoughness": {
        "metallicFactor": 0.0,
        "roughnessFactor": 0.552786
      }
    },
    {
      "doubleSided": true,
      "name": "lambert2",
      "pbrMetallicRoughness": {
        "baseColorFactor": [
          0.0651163,
          0.0651163,
          0.0651163,
          1.0
        ],
        "metallicFactor": 0.0,
        "roughnessFactor": 0.552786
      }
    }
  ],
  "meshes": [
    {
      "name": "Object_0",
      "primitives": [
        {
          "attributes": {
            "NORMAL": 1,
            "POSITION": 0,
            "TEXCOORD_0": 2
          },
          "indices": 3,
          "material": 0,
          "mode": 4
        }
      ]
    },
    {
      "name": "Object_1",
      "primitives": [
        {
          "attributes": {
            "NORMAL": 5,
            "POSITION": 4,
            "TEXCOORD_0": 6
          },
          "indices": 7,
          "material": 1,
          "mode": 4
        }
      ]
    },
    {
      "name": "Object_2",
      "primitives": [
        {
          "attributes": {
            "NORMAL": 9,
            "POSITION": 8,
            "TEXCOORD_0": 10
          },
          "indices": 11,
          "material": 0,
          "mode": 4
        }
      ]
    },
    {
      "name": "Object_3",
      "primitives": [
        {
          "attributes": {
            "NORMAL": 13,
            "POSITION": 12,
            "TEXCOORD_0": 14
          },
          "indices": 15,
          "material": 2,
          "mode": 4
        }
      ]
    }
  ],
  "nodes": [
    {
      "children": [
        1
      ],
      "matrix": [
        1.0,
        0.0,
        0.0,
        0.0,
        0.0,
        2.220446049250313e-16,
        -1.0,
        0.0,
        0.0,
        1.0,
        2.220446049250313e-16,
        0.0,
        0.0,
        0.0,
        0.0,
        1.0
      ],
      "name": "Sketchfab_model"
    },
    {
      "children": [
        2
      ],
      "name": "root"
    },
    {
      "children": [
        3,
        6
      ],
      "matrix": [
        1.0,
        0.0,
        0.0,
        0.0,
        0.0,
        2.220446049250313e-16,
        1.0,
        0.0,
        0.0,
        -1.0,
        2.220446049250313e-16,
        0.0,
        0.0,
        0.0,
        0.0,
        1.0
      ],
      "name": "GLTF_SceneRootNode"
    },
    {
      "children": [
        4
      ],
      "matrix": [
        0.009166264131845252,
        -0.0019026199887179,
        -0.003515627194887137,
        0.0,
        0.001224822216194354,
        -0.007034920806674771,
        0.007000692488045937,
        0.0,
        -0.003805181721497103,
        -0.006847621627397147,
        -0.006215357241867827,
        0.0,
        0.0010108000133186579,
        -0.01982022635638714,
        -0.014114605262875557,
        1.0
      ],
      "name": "group1_30"
    },
    {
      "children": [
        5
      ],
      "name": "polySurface2_29"
    },
    {
      "mesh": 0,
      "name": "Object_5"
    },
    {
      "children": [
        7,
        8,
        9
      ],
      "name": "polySurface18_37",
      "rotation": [
        0.7071068286895752,
        0.0,
        0.0,
        0.7071067094802856
      ],
      "scale": [
        0.009999999776482582,
        0.009999999776482582,
        0.009999999776482582
      ]
    },
    {
      "mesh": 1,
      "name": "Object_7"
    },
    {
      "mesh": 2,
      "name": "Object_8"
    },
    {
      "mesh": 3,
      "name": "Object_9"
    }
  ],
  "samplers": [
    {
      "magFilter": 9729,
      "minFilter": 9987,
      "wrapS": 10497,
      "wrapT": 10497
    }
  ],
  "scene": 0,
  "scenes": [
    {
      "name": "Sketchfab_Scene",
      "nodes": [
        0
      ]
    }
  ],
  "textures": [
    {
      "sampler": 0,
      "source": 0
    }
  ]
}
